<svg width="39" height="22" viewBox="0 0 39 22" fill="none" xmlns="http://www.w3.org/2000/svg">
<path opacity="0.971" fill-rule="evenodd" clip-rule="evenodd" d="M31.5849 21.9599C23.4697 21.9599 15.3545 21.9599 7.23925 21.9599C4.43141 21.6312 2.42457 20.2966 1.21874 17.956C0.953021 17.3632 0.77724 16.7493 0.691397 16.1142C0.455349 13.0315 0.836206 10.0153 1.83397 7.06541C2.48913 5.18902 3.61706 3.60083 5.21776 2.30076C7.02058 1.05931 9.04206 0.578838 11.2822 0.859352C12.2493 1.35311 13.1868 1.88699 14.0947 2.46091C17.4465 4.23304 20.845 4.31312 24.29 2.70115C25.3592 2.06717 26.4433 1.45321 27.542 0.859352C31.1458 0.532553 33.8851 1.77376 35.7598 4.58298C37.1661 7.01183 37.9571 9.601 38.1328 12.3506C38.2593 13.6332 38.2593 14.9144 38.1328 16.1943C37.428 19.5113 35.2453 21.4332 31.5849 21.9599ZM9.70019 3.22166C9.93635 3.20852 10.1708 3.2219 10.4033 3.2617C11.7701 4.11148 13.2057 4.85885 14.7099 5.50388C18.5947 6.83662 22.3447 6.56964 25.9599 4.7031C26.7802 4.22263 27.6006 3.74216 28.4209 3.2617C30.6336 3.2496 32.2889 4.11709 33.3867 5.86423C34.4729 7.68577 35.1174 9.63431 35.3203 11.7099C35.4879 13.1515 35.5173 14.5929 35.4082 16.0342C34.9639 17.8003 33.7774 18.9081 31.8486 19.3574C31.3258 19.4433 30.7984 19.4967 30.2666 19.5176C23.0303 19.571 15.7939 19.571 8.55761 19.5176C6.48945 19.5834 4.9221 18.8226 3.85546 17.2353C3.65607 16.8237 3.50958 16.3967 3.41601 15.9541C3.15803 12.9283 3.59748 9.9921 4.73436 7.14549C5.33185 5.7478 6.31332 4.64 7.6787 3.82224C8.33709 3.54661 9.01095 3.34642 9.70019 3.22166Z" fill="#B3B6C4"/>
</svg>
